<?xml version="1.0" encoding="UTF-8" standalone="no"?>

<svg
   id="svg2"
   sodipodi:version="0.32"
   inkscape:version="1.1.2 (b8e25be833, 2022-02-05)"
   width="600"
   height="600"
   version="1.0"
   sodipodi:docname="paper.svg"
   inkscape:output_extension="org.inkscape.output.svg.inkscape"
   xmlns:inkscape="http://www.inkscape.org/namespaces/inkscape"
   xmlns:sodipodi="http://sodipodi.sourceforge.net/DTD/sodipodi-0.dtd"
   xmlns="http://www.w3.org/2000/svg"
   xmlns:svg="http://www.w3.org/2000/svg"
   xmlns:rdf="http://www.w3.org/1999/02/22-rdf-syntax-ns#"
   xmlns:cc="http://creativecommons.org/ns#"
   xmlns:dc="http://purl.org/dc/elements/1.1/">
  <defs
     id="defs5">
    <marker
       inkscape:stockid="Arrow1Lstart"
       orient="auto"
       refY="0.0"
       refX="0.0"
       id="Arrow1Lstart"
       style="overflow:visible">
      <path
         id="path3525"
         d="M 0.0,0.0 L 5.0,-5.0 L -12.5,0.0 L 5.0,5.0 L 0.0,0.0 z "
         style="fill-rule:evenodd;stroke:#000000;stroke-width:1.0pt;marker-start:none"
         transform="scale(0.8) translate(12.5,0)" />
    </marker>
    <marker
       inkscape:stockid="Arrow1Lend"
       orient="auto"
       refY="0.0"
       refX="0.0"
       id="Arrow1Lend"
       style="overflow:visible;">
      <path
         id="path3528"
         d="M 0.0,0.0 L 5.0,-5.0 L -12.5,0.0 L 5.0,5.0 L 0.0,0.0 z "
         style="fill-rule:evenodd;stroke:#000000;stroke-width:1.0pt;marker-start:none;"
         transform="scale(0.8) rotate(180) translate(12.5,0)" />
    </marker>
    <inkscape:perspective
       sodipodi:type="inkscape:persp3d"
       inkscape:vp_x="0 : 526.18109 : 1"
       inkscape:vp_y="0 : 1000 : 0"
       inkscape:vp_z="744.09448 : 526.18109 : 1"
       inkscape:persp3d-origin="372.04724 : 350.78739 : 1"
       id="perspective9" />
    <inkscape:perspective
       id="perspective2413"
       inkscape:persp3d-origin="372.04724 : 350.78739 : 1"
       inkscape:vp_z="744.09448 : 526.18109 : 1"
       inkscape:vp_y="0 : 1000 : 0"
       inkscape:vp_x="0 : 526.18109 : 1"
       sodipodi:type="inkscape:persp3d" />
    <inkscape:perspective
       id="perspective2426"
       inkscape:persp3d-origin="372.04724 : 350.78739 : 1"
       inkscape:vp_z="744.09448 : 526.18109 : 1"
       inkscape:vp_y="0 : 1000 : 0"
       inkscape:vp_x="0 : 526.18109 : 1"
       sodipodi:type="inkscape:persp3d" />
    <inkscape:perspective
       id="perspective3367"
       inkscape:persp3d-origin="372.04724 : 350.78739 : 1"
       inkscape:vp_z="744.09448 : 526.18109 : 1"
       inkscape:vp_y="0 : 1000 : 0"
       inkscape:vp_x="0 : 526.18109 : 1"
       sodipodi:type="inkscape:persp3d" />
    <inkscape:perspective
       id="perspective3397"
       inkscape:persp3d-origin="372.04724 : 350.78739 : 1"
       inkscape:vp_z="744.09448 : 526.18109 : 1"
       inkscape:vp_y="0 : 1000 : 0"
       inkscape:vp_x="0 : 526.18109 : 1"
       sodipodi:type="inkscape:persp3d" />
    <clipPath
       clipPathUnits="userSpaceOnUse"
       id="clipPath3428">
      <path
         sodipodi:type="arc"
         style="opacity:1;fill:none;fill-opacity:1;stroke:#000000;stroke-width:11.44032955;stroke-linecap:round;stroke-linejoin:round;stroke-miterlimit:4;stroke-dasharray:none;stroke-opacity:1"
         id="path3430"
         sodipodi:cx="-126.15619"
         sodipodi:cy="-211.35745"
         sodipodi:rx="343.83746"
         sodipodi:ry="343.83746"
         d="M 217.68127,-211.35745 A 343.83746,343.83746 0 1 1 -469.99365,-211.35745 A 343.83746,343.83746 0 1 1 217.68127,-211.35745 z"
         transform="matrix(0.8741007,0,0,0.8741007,245.08718,124.28294)" />
    </clipPath>
    <clipPath
       clipPathUnits="userSpaceOnUse"
       id="clipPath3435">
      <circle
         style="opacity:1;fill:#d7f4d7;fill-opacity:1;stroke:#87de87;stroke-width:9.11128;stroke-linecap:round;stroke-linejoin:round;stroke-miterlimit:4;stroke-dasharray:none;stroke-opacity:1"
         id="use3437"
         cx="751.16809"
         cy="-181.04213"
         r="273.83896" />
    </clipPath>
    <clipPath
       clipPathUnits="userSpaceOnUse"
       id="clipPath3441">
      <circle
         style="opacity:1;fill:#d7f4d7;fill-opacity:1;stroke:#87de87;stroke-width:9.99997;stroke-linecap:round;stroke-linejoin:round;stroke-miterlimit:4;stroke-dasharray:none;stroke-opacity:1"
         id="use3443"
         cx="963.48688"
         cy="257.39935"
         r="300.54855" />
    </clipPath>
    <clipPath
       clipPathUnits="userSpaceOnUse"
       id="clipPath3447">
      <circle
         style="opacity:1;fill:#d7f4d7;fill-opacity:1;stroke:#87de87;stroke-width:9.99997;stroke-linecap:round;stroke-linejoin:round;stroke-miterlimit:4;stroke-dasharray:none;stroke-opacity:1"
         id="use3449"
         cx="357.44254"
         cy="257.39935"
         r="300.54855" />
    </clipPath>
    <clipPath
       clipPathUnits="userSpaceOnUse"
       id="clipPath3453">
      <circle
         style="opacity:1;fill:#d7f4d7;fill-opacity:1;stroke:#87de87;stroke-width:9.99997;stroke-linecap:round;stroke-linejoin:round;stroke-miterlimit:4;stroke-dasharray:none;stroke-opacity:1"
         id="use3455"
         cx="-260.97015"
         cy="358.81906"
         r="300.54855" />
    </clipPath>
  </defs>
  <sodipodi:namedview
     inkscape:window-height="1085"
     inkscape:window-width="1918"
     inkscape:pageshadow="2"
     inkscape:pageopacity="0.0"
     guidetolerance="10.0"
     gridtolerance="10.0"
     objecttolerance="10.0"
     borderopacity="1.0"
     bordercolor="#666666"
     pagecolor="#ffffff"
     id="base"
     showgrid="false"
     inkscape:zoom="1"
     inkscape:cx="55.5"
     inkscape:cy="256.5"
     inkscape:window-x="0"
     inkscape:window-y="-1294"
     inkscape:current-layer="g12095"
     showguides="true"
     inkscape:guide-bbox="true"
     inkscape:pagecheckerboard="0"
     inkscape:window-maximized="0" />
  <g
     id="g12095"
     transform="translate(-4.5403586,-1.9250825)">
    <g
       transform="matrix(0.44946436,0,0,0.44946436,204.06813,492.1276)"
       id="g3479">
      <g
         id="g3260"
         clip-path="url(#clipPath3447)"
         transform="matrix(2.210637,0,0,2.210637,-565.4114,-989.86039)"
         style="fill:none">
        <path
           sodipodi:nodetypes="csssssssscsssssscsscssscssssssssc"
           id="path3240"
           d="M 1.3574661,430.31674 C 0.62715841,430.14196 85.168351,391.57867 122.17195,371.26697 c 3.66458,-2.01153 1.34229,-20.07516 4.75113,-27.82806 4.14446,-9.42596 32.70994,-94.84199 35.29411,-102.48868 0.69541,-2.05776 19.34528,-20.73662 35.10539,-41.18222 15.89999,-20.62707 25.8526,-38.87419 34.12538,-42.30194 8.12281,-3.36561 15.96066,-3.50771 29.72831,-7.28427 11.7828,-3.23209 21.09792,-8.53713 25.24907,-10.36279 7.42048,-3.2635 17.86564,-6.90209 25.11312,-4.07241 6.69367,2.61345 4.09312,8.33052 5.42987,14.93213 7.058,-7.51791 17.77959,-14.67507 26.58885,-22.26069 8.69252,-7.48509 15.46945,-15.40522 22.95866,-21.85695 6.971,-6.0053 17.08572,-12.548539 25.25685,-19.515159 7.36434,-6.278765 12.76772,-13.028849 19.53953,-17.815162 12.37634,-8.747592 32.77047,-23.627715 47.51131,-27.149321 10.9695,-2.620627 20.23379,1.088039 25.79186,14.253394 1.7797,4.215558 -1.82079,12.629407 -4.0724,16.968325 19.83327,-13.383608 21.84504,-20.581851 31.90045,-23.755656 19.1723,-6.051386 28.2747,3.798034 29.86426,19.004525 1.25981,12.051952 -11.27703,24.423442 -21.71946,34.615384 17.20168,-12.160004 30.34861,6.16958 31.22171,20.36199 0.39409,6.40589 -4.19344,11.50598 -8.65748,17.76434 -5.83493,8.18028 -11.4146,17.8303 -15.7769,24.99584 -9.46434,15.54618 -6.39366,8.2988 -40.72399,54.29865 30.84537,-25.77518 29.76032,-35.98022 42.76019,-36.65159 9.20701,-0.47549 11.64228,6.09034 14.25339,14.93213 3.35279,11.35329 -9.23797,30.74777 -15.61086,40.72398 -11.77809,18.43759 -31.5112,40.17085 -45.47511,57.01357 -11.15009,13.4488 -27.3052,30.31104 -38.00905,44.11765 -10.48643,13.52617 -20.12157,35.09673 -32.57919,46.83258 C 366.22229,430.67346 295.5958,492.82239 259.95475,505.65611 205.45615,525.2801 74.508339,597.99199 75.339367,600 76.637111,603.13574 1.3574661,429.63801 1.3574661,430.31674 Z"
           style="opacity:1;fill:none;fill-opacity:1;stroke:#ffffff;stroke-width:3.52866;stroke-linecap:round;stroke-linejoin:round;stroke-miterlimit:4;stroke-dasharray:none;stroke-opacity:0.819608" />
        <path
           sodipodi:nodetypes="ccc"
           id="path3242"
           d="m 481.90045,71.945701 -75.28084,67.937029 c -22.21975,22.09427 -45.32202,49.4836 -65.89563,61.70098"
           style="opacity:1;fill:none;fill-opacity:0.166667;stroke:#ffffff;stroke-width:3.52866;stroke-linecap:round;stroke-linejoin:round;stroke-miterlimit:4;stroke-dasharray:none;stroke-opacity:0.819608" />
        <path
           sodipodi:nodetypes="ccc"
           id="path3244"
           d="m 521.26697,103.16742 c -23.39259,26.29618 -43.08479,50.74216 -73.03649,80.31789 -18.25659,24.34224 -48.60535,39.51436 -57.28025,58.14365"
           style="opacity:1;fill:none;fill-opacity:0.166667;stroke:#ffffff;stroke-width:3.52866;stroke-linecap:round;stroke-linejoin:round;stroke-miterlimit:4;stroke-dasharray:none;stroke-opacity:0.819608" />
        <path
           sodipodi:nodetypes="cc"
           id="path3246"
           d="M 488.68778,218.55204 C 455.2875,262.51052 442.53334,254.86719 411.31222,310.181"
           style="opacity:1;fill:none;fill-opacity:0.166667;stroke:#ffffff;stroke-width:3.52866;stroke-linecap:round;stroke-linejoin:round;stroke-miterlimit:4;stroke-dasharray:none;stroke-opacity:0.819608" />
        <path
           sodipodi:nodetypes="ccc"
           id="path3248"
           d="M 173.75566,255.20362 C 220.74163,211.79031 268.71286,193.03345 316.96833,150 v 0"
           style="opacity:1;fill:none;fill-opacity:0.166667;stroke:#ffffff;stroke-width:3.52866;stroke-linecap:round;stroke-linejoin:round;stroke-miterlimit:4;stroke-dasharray:none;stroke-opacity:0.819608" />
      </g>
    </g>
  </g>
</svg>
